<svg width="65" height="65" viewBox="0 0 65 65" fill="none" xmlns="http://www.w3.org/2000/svg">
<path fill-rule="evenodd" clip-rule="evenodd" d="M54.852 9.49929C67.3488 21.9961 67.3488 42.2573 54.852 54.7541C42.3552 67.2509 22.0939 67.2509 9.59714 54.7541C-2.89963 42.2573 -2.89963 21.9961 9.59714 9.49929C22.0939 -2.99748 42.3552 -2.99748 54.852 9.49929ZM18.7581 18.6601C11.3207 26.0975 11.3207 38.1559 18.7581 45.5932C26.1955 53.0306 38.2539 53.0306 45.6913 45.5932C45.7203 45.5642 45.7493 45.5351 45.7781 45.5059C53.1286 38.0617 53.0996 26.0684 45.6913 18.6601C38.2539 11.2227 26.1955 11.2227 18.7581 18.6601ZM15.5256 48.8257C6.30297 39.6031 6.30297 24.6502 15.5256 15.4276C15.5616 15.3915 15.5978 15.3557 15.634 15.3199C24.865 6.20506 39.7372 6.24095 48.9238 15.4276C58.1464 24.6502 58.1464 39.6031 48.9238 48.8257C39.7011 58.0484 24.7483 58.0484 15.5256 48.8257Z" fill="#058A8A"/>
</svg>
